<svg width="184" height="94" viewBox="0 0 184 94" fill="none" xmlns="http://www.w3.org/2000/svg">
<mask id="mask0" mask-type="alpha" maskUnits="userSpaceOnUse" x="0" y="0" width="184" height="94">
<rect width="184" height="94" fill="#C4C4C4"/>
</mask>
<g mask="url(#mask0)">
<g opacity="0.1">
<path d="M86.4 43.7999C63.4853 43.7999 41.5091 34.6971 25.306 18.4939C9.10285 2.29078 6.92005e-06 -19.6854 0 -42.6001L43.2 -42.6001C43.2 -31.1427 47.7514 -20.1547 55.853 -12.0531C63.9546 -3.95153 74.9426 0.599888 86.4 0.599888V43.7999Z" fill="#0D1838"/>
<path d="M129.6 -85.7999C152.514 -85.7999 174.49 -76.6971 190.694 -60.494C206.897 -44.2908 216 -22.3147 216 0.600052L172.8 0.60006C172.8 -10.8573 168.248 -21.8454 160.147 -29.9469C152.045 -38.0485 141.057 -42.5999 129.6 -42.5999V-85.7999Z" fill="#0D1838"/>
<path d="M172.8 0.600222C172.8 23.5149 163.698 45.4911 147.494 61.6942C131.291 77.8974 109.315 87.0002 86.4004 87.0002L86.4004 43.8002C97.8577 43.8002 108.846 39.2488 116.947 31.1472C125.049 23.0457 129.6 12.0576 129.6 0.60022L172.8 0.600222Z" fill="#0D1838"/>
</g>
</g>
</svg>
